<?xml version="1.0" encoding="UTF-8" standalone="no"?>
<!DOCTYPE svg PUBLIC "-//W3C//DTD SVG 1.1//EN" "http://www.w3.org/Graphics/SVG/1.1/DTD/svg11.dtd">
<svg width="100%" height="100%" viewBox="0 0 1148 318" version="1.1" xmlns="http://www.w3.org/2000/svg" xmlns:xlink="http://www.w3.org/1999/xlink" xml:space="preserve" xmlns:serif="http://www.serif.com/" style="fill-rule:evenodd;clip-rule:evenodd;stroke-linejoin:round;stroke-miterlimit:2;">
    <g transform="matrix(1,0,0,1,-16.8813,-136.521)">
        <g transform="matrix(4.16667,0,0,4.16667,0,0)">
            <g transform="matrix(1,0,0,1,25.481,100.54)">
                <path d="M0,-59.411C-1.577,-59.353 -3.254,-59.224 -5.03,-59.024C-6.807,-58.823 -8.627,-58.651 -10.49,-58.508C-12.353,-58.365 -14.087,-58.521 -15.691,-58.981C-16.093,-59.267 -16.538,-59.467 -17.024,-59.583C-17.512,-59.697 -18.013,-59.811 -18.529,-59.927C-18.529,-60.155 -18.558,-60.256 -18.615,-60.228C-18.672,-60.198 -18.758,-60.142 -18.873,-60.056C-18.988,-59.97 -19.117,-59.897 -19.26,-59.841C-19.403,-59.783 -19.561,-59.811 -19.732,-59.927C-20.19,-59.353 -20.477,-58.68 -20.592,-57.906C-20.707,-57.133 -20.75,-56.344 -20.721,-55.542C-20.692,-54.739 -20.635,-53.922 -20.549,-53.092C-20.463,-52.26 -20.42,-51.471 -20.42,-50.727C-20.42,-47.058 -20.535,-43.275 -20.764,-39.378C-20.993,-35.479 -21.179,-31.524 -21.323,-27.513C-21.465,-23.5 -21.465,-19.445 -21.323,-15.347C-21.179,-11.248 -20.764,-7.136 -20.076,-3.009C-19.332,-2.781 -18.701,-2.695 -18.185,-2.751C-17.669,-2.809 -17.067,-2.895 -16.379,-3.009C-15.863,-5.188 -15.749,-7.48 -16.035,-9.887C-16.437,-13.613 -16.738,-17.396 -16.938,-21.237C-17.14,-25.076 -17.239,-28.874 -17.239,-32.629C-17.239,-36.382 -17.14,-40.065 -16.938,-43.677C-16.738,-47.288 -16.437,-50.727 -16.035,-53.994C-14.488,-53.707 -13.099,-53.521 -11.865,-53.435C-10.633,-53.349 -9.458,-53.32 -8.34,-53.349C-7.223,-53.378 -6.163,-53.435 -5.159,-53.521C-4.157,-53.607 -3.082,-53.65 -1.935,-53.65C-2.222,-51.931 -2.637,-50.239 -3.181,-48.578C-3.727,-46.914 -4.314,-45.238 -4.944,-43.548C-5.575,-41.856 -6.234,-40.137 -6.921,-38.389C-7.609,-36.64 -8.241,-34.878 -8.813,-33.101C-9.444,-31.094 -10.003,-28.974 -10.49,-26.74C-10.978,-24.503 -11.564,-22.239 -12.252,-19.947C-12.654,-18.571 -13.069,-17.067 -13.499,-15.433C-13.929,-13.799 -14.273,-12.194 -14.531,-10.618C-14.789,-9.04 -14.933,-7.551 -14.96,-6.147C-14.99,-4.744 -14.803,-3.582 -14.402,-2.664C-14.001,-2.837 -13.714,-3.124 -13.542,-3.525C-13.37,-3.926 -13.228,-4.371 -13.112,-4.858C-12.998,-5.345 -12.854,-5.803 -12.682,-6.233C-12.51,-6.662 -12.252,-6.993 -11.908,-7.222C-10.418,-13.469 -8.67,-19.674 -6.664,-25.836C-4.658,-31.997 -2.566,-37.772 -0.387,-43.161C0.701,-45.797 1.719,-48.52 2.665,-51.329C3.611,-54.137 4.054,-56.574 3.998,-58.637C2.908,-59.209 1.576,-59.467 0,-59.411M15.777,-59.11C14.974,-59.482 14.058,-59.467 13.026,-59.067C10.217,-54.768 7.609,-50.168 5.202,-45.267C2.794,-40.367 0.789,-35.222 -0.817,-29.834C-0.357,-28.858 0.245,-27.999 0.989,-27.255C1.734,-26.509 2.679,-25.994 3.826,-25.707C4.628,-23.988 5.516,-22.382 6.492,-20.893C7.465,-19.402 8.439,-17.897 9.415,-16.378C10.389,-14.859 11.277,-13.269 12.08,-11.607C12.882,-9.944 13.512,-8.081 13.972,-6.018C14.315,-5.846 14.645,-5.56 14.96,-5.159C15.275,-4.758 15.605,-4.384 15.949,-4.04C16.293,-3.697 16.65,-3.439 17.024,-3.267C17.396,-3.095 17.841,-3.153 18.357,-3.439C18.815,-3.898 19.058,-4.399 19.087,-4.944C19.116,-5.489 19.058,-6.046 18.916,-6.619C18.772,-7.193 18.585,-7.766 18.357,-8.339C18.127,-8.911 18.013,-9.486 18.013,-10.059C19.044,-11.779 19.918,-13.684 20.635,-15.777C21.351,-17.869 22.097,-19.917 22.871,-21.924C23.645,-23.93 24.532,-25.807 25.536,-27.556C26.538,-29.304 27.814,-30.694 29.362,-31.725C29.418,-32.126 29.347,-32.413 29.147,-32.585C28.946,-32.758 28.932,-33.101 29.104,-33.617C26.065,-36.54 23.658,-40.022 21.882,-44.063C20.104,-48.105 18.757,-52.619 17.841,-57.605C17.267,-58.235 16.58,-58.737 15.777,-59.11M6.535,-36.111C7.25,-37.887 8.01,-39.593 8.813,-41.226C9.615,-42.86 10.46,-44.451 11.35,-45.998C12.237,-47.546 13.112,-49.15 13.972,-50.813C14.774,-49.552 15.504,-48.234 16.164,-46.858C16.823,-45.482 17.482,-44.107 18.142,-42.731C18.8,-41.355 19.475,-39.993 20.162,-38.647C20.85,-37.299 21.624,-36.024 22.484,-34.821C20.993,-31.782 19.561,-28.674 18.185,-25.493C16.809,-22.311 15.691,-18.799 14.832,-14.96C13.914,-16.163 13.083,-17.453 12.338,-18.829C11.593,-20.204 10.833,-21.566 10.06,-22.913C9.286,-24.259 8.482,-25.564 7.652,-26.826C6.821,-28.085 5.86,-29.232 4.772,-30.264C5.23,-32.384 5.817,-34.333 6.535,-36.111M55.069,0.087C55.355,-0.545 55.556,-1.161 55.671,-1.762C55.786,-2.364 55.9,-3.009 56.015,-3.697C56.359,-6.504 56.387,-9.314 56.101,-12.122C55.813,-14.93 55.585,-17.711 55.414,-20.462C55.355,-21.093 55.327,-21.752 55.327,-22.44C55.327,-23.128 55.27,-23.816 55.155,-24.503C55.04,-25.936 54.983,-27.327 54.983,-28.674L54.983,-32.93C54.983,-34.305 54.969,-35.724 54.94,-37.185C54.911,-38.647 54.897,-39.95 54.897,-41.098L54.897,-53.307C54.897,-56.058 54.926,-58.809 54.983,-61.56L54.983,-62.678C54.926,-62.792 54.868,-62.893 54.812,-62.979C54.754,-63.065 54.696,-63.164 54.64,-63.28C54.468,-63.508 54.309,-63.781 54.167,-64.097C54.023,-64.411 53.879,-64.712 53.737,-64.999C53.593,-65.286 53.393,-65.515 53.135,-65.687C52.877,-65.859 52.546,-65.916 52.146,-65.859C51.802,-65.802 51.572,-65.673 51.458,-65.473C51.343,-65.271 51.243,-65.043 51.157,-64.785C51.071,-64.527 50.999,-64.254 50.942,-63.968C50.885,-63.681 50.771,-63.452 50.599,-63.28C50.197,-62.878 49.653,-62.821 48.965,-63.108C48.277,-61.101 47.661,-59.024 47.116,-56.874C46.571,-54.725 46.055,-52.546 45.569,-50.34C45.081,-48.133 44.58,-45.955 44.064,-43.806C43.548,-41.656 42.975,-39.55 42.344,-37.486C41.713,-39.034 41.154,-40.653 40.668,-42.344C40.18,-44.034 39.665,-45.711 39.12,-47.374C38.575,-49.036 37.988,-50.669 37.357,-52.275C36.726,-53.879 35.982,-55.34 35.122,-56.66C35.007,-56.888 34.907,-57.09 34.821,-57.262C34.735,-57.433 34.606,-57.605 34.435,-57.777C34.319,-57.891 34.162,-58.078 33.961,-58.336C33.76,-58.594 33.603,-58.723 33.489,-58.723C32.571,-58.608 31.868,-58.349 31.382,-57.949C30.895,-57.548 30.335,-57.203 29.706,-56.917C29.246,-52.733 28.889,-48.548 28.631,-44.365C28.373,-40.18 28.186,-35.938 28.072,-31.64C28.014,-29.404 28.029,-27.198 28.115,-25.02C28.201,-22.84 28.244,-20.721 28.244,-18.658C28.244,-17.625 28.257,-16.536 28.287,-15.39C28.315,-14.243 28.416,-13.183 28.588,-12.208C28.702,-11.234 28.945,-10.345 29.318,-9.543C29.691,-8.74 30.278,-8.138 31.081,-7.738C31.653,-10.775 32.012,-13.971 32.156,-17.325C32.298,-20.678 32.427,-24.044 32.543,-27.427C32.657,-30.807 32.844,-34.118 33.102,-37.357C33.359,-40.595 33.889,-43.619 34.692,-46.428C36.01,-43.045 37.1,-39.434 37.959,-35.595C38.819,-31.754 39.908,-28.115 41.227,-24.676C41.799,-24.732 42.272,-24.661 42.646,-24.46C43.018,-24.259 43.347,-24.302 43.634,-24.589C44.436,-26.595 45.081,-28.674 45.569,-30.823C46.055,-32.973 46.558,-35.136 47.073,-37.314C47.531,-39.55 48.047,-41.742 48.621,-43.891C49.193,-46.041 49.967,-47.946 50.942,-49.609C50.885,-48.348 50.87,-47.015 50.899,-45.611C50.928,-44.206 50.942,-42.845 50.942,-41.527C50.942,-40.208 50.956,-38.832 50.985,-37.4C51.014,-35.967 51.057,-34.591 51.114,-33.273C51.114,-30.866 51.128,-28.429 51.157,-25.965C51.186,-23.5 51.257,-21.12 51.373,-18.829L51.373,-16.68C51.486,-16.507 51.601,-16.192 51.716,-15.734C52.002,-14.3 52.174,-12.854 52.232,-11.392C52.289,-9.93 52.375,-8.396 52.49,-6.792C52.546,-5.932 52.561,-5.087 52.533,-4.255C52.503,-3.425 52.49,-2.578 52.49,-1.719C52.49,-0.803 52.533,0.029 52.619,0.774C52.705,1.518 52.977,2.207 53.436,2.838C54.352,2.15 54.897,1.232 55.069,0.087M82.539,-57.305C82.453,-57.219 82.41,-57.09 82.41,-56.917C82.524,-56.802 82.653,-56.745 82.797,-56.745C82.939,-56.745 83.126,-56.716 83.356,-56.66L83.485,-56.66C83.513,-56.602 83.584,-56.574 83.7,-56.574L84.086,-56.574C84.229,-56.574 84.416,-56.63 84.646,-56.745C85.046,-56.86 85.476,-57.075 85.935,-57.39C86.393,-57.705 86.765,-58.063 87.053,-58.465C87.281,-59.095 87.296,-59.669 87.096,-60.185C86.895,-60.701 86.593,-60.987 86.193,-61.045C84.817,-61.159 83.528,-61.116 82.324,-60.915C81.12,-60.714 80.002,-60.413 78.971,-60.013C78.283,-59.897 77.651,-59.768 77.079,-59.626C76.505,-59.482 75.904,-59.295 75.273,-59.067C74.758,-59.067 74.227,-59.009 73.683,-58.895C73.138,-58.78 72.637,-58.694 72.178,-58.637C70.917,-58.121 69.599,-57.72 68.223,-57.433C66.848,-57.146 65.414,-56.888 63.924,-56.66C64.096,-57.348 64.096,-57.963 63.924,-58.508C63.752,-59.052 63.637,-59.64 63.581,-60.271C63.121,-60.557 62.648,-60.829 62.162,-61.088C61.674,-61.346 61.173,-61.331 60.657,-61.045C60.427,-60.757 60.27,-60.4 60.184,-59.97C60.098,-59.54 60.026,-59.067 59.969,-58.551C59.912,-58.035 59.826,-57.533 59.711,-57.047C59.596,-56.559 59.424,-56.144 59.195,-55.8C58.966,-55.914 58.822,-56.058 58.766,-56.23C57.848,-56.516 57.089,-56.372 56.487,-55.8C55.885,-55.226 55.614,-54.453 55.67,-53.478C55.786,-52.962 56.001,-52.589 56.315,-52.361C56.631,-52.131 56.974,-51.931 57.347,-51.759C57.719,-51.587 58.091,-51.415 58.465,-51.243C58.837,-51.071 59.109,-50.784 59.281,-50.383C58.994,-48.148 58.751,-45.783 58.551,-43.29C58.349,-40.796 58.078,-38.374 57.734,-36.024C57.676,-36.139 57.605,-36.182 57.519,-36.154C57.433,-36.124 57.332,-36.139 57.218,-36.197C56.76,-36.081 56.416,-35.809 56.186,-35.38C55.958,-34.95 55.756,-34.447 55.584,-33.875C55.928,-33.645 56.272,-33.388 56.616,-33.101C56.96,-32.813 57.188,-32.413 57.304,-31.897C57.132,-29.834 56.917,-27.857 56.659,-25.965C56.401,-24.074 56.143,-22.21 55.885,-20.376C55.627,-18.541 55.369,-16.693 55.111,-14.831C54.854,-12.968 54.639,-11.005 54.467,-8.942C54.696,-8.711 54.982,-8.554 55.326,-8.468C55.67,-8.382 56.001,-8.282 56.315,-8.167C56.631,-8.052 56.945,-7.923 57.261,-7.781C57.575,-7.637 57.848,-7.394 58.078,-7.05C59.454,-9.114 61.015,-10.904 62.764,-12.423C64.511,-13.942 66.302,-15.447 68.137,-16.938C69.054,-17.74 70,-18.455 70.975,-19.087C71.949,-19.717 72.895,-20.376 73.812,-21.065C74.556,-21.695 75.287,-22.239 76.004,-22.699C76.721,-23.157 77.479,-23.672 78.283,-24.245C78.511,-24.474 78.726,-24.661 78.928,-24.805C79.128,-24.947 79.285,-25.192 79.401,-25.536C79.285,-25.65 79.171,-25.779 79.057,-25.922C78.941,-26.065 78.827,-26.137 78.713,-26.137C78.425,-26.251 78.167,-26.294 77.939,-26.266C77.709,-26.237 77.509,-26.194 77.337,-26.137C76.362,-25.85 75.459,-25.521 74.629,-25.149C73.797,-24.775 72.98,-24.36 72.178,-23.902C71.031,-23.615 69.957,-23.185 68.954,-22.612C67.951,-22.038 66.99,-21.409 66.074,-20.721C65.099,-19.975 64.11,-19.345 63.107,-18.829C62.104,-18.313 61.115,-17.768 60.141,-17.196C60.255,-19.889 60.499,-22.354 60.872,-24.589C61.244,-26.826 61.487,-29.289 61.603,-31.983C62.921,-32.613 64.311,-33.216 65.773,-33.789C67.234,-34.361 68.682,-35.05 70.115,-35.852C71.375,-36.425 72.637,-37.099 73.898,-37.873C75.158,-38.647 76.248,-39.55 77.165,-40.581L77.251,-40.753L77.337,-41.011C75.846,-41.125 74.485,-41.025 73.253,-40.71C72.02,-40.395 70.859,-40.094 69.771,-39.807C68.567,-39.406 67.364,-39.019 66.16,-38.647C64.956,-38.273 63.695,-37.944 62.377,-37.658C62.433,-38.862 62.519,-40.008 62.635,-41.098C62.749,-42.185 62.878,-43.26 63.021,-44.322C63.164,-45.382 63.279,-46.456 63.366,-47.546C63.452,-48.634 63.465,-49.781 63.409,-50.985C65.185,-51.557 66.876,-52.088 68.481,-52.576C70.085,-53.062 71.691,-53.535 73.296,-53.994C73.754,-54.166 74.199,-54.351 74.629,-54.553C75.059,-54.753 75.502,-54.854 75.961,-54.854C76.305,-54.968 76.663,-55.125 77.036,-55.327C77.408,-55.527 77.767,-55.742 78.111,-55.972C78.971,-56.316 79.758,-56.617 80.476,-56.874C81.191,-57.133 81.98,-57.404 82.84,-57.691C82.724,-57.519 82.625,-57.39 82.539,-57.305M89.76,-45.869C90.418,-47.731 91.136,-49.566 91.91,-51.372C92.684,-53.178 93.586,-54.897 94.618,-56.531C95.65,-58.164 96.939,-59.554 98.487,-60.701L98.487,-63.452C98.143,-63.336 97.928,-63.422 97.842,-63.71C97.756,-63.996 97.713,-64.34 97.713,-64.742C97.713,-65.142 97.684,-65.486 97.627,-65.773C97.569,-66.059 97.369,-66.145 97.025,-66.032C96.108,-64.942 95.248,-64.239 94.446,-63.925C93.643,-63.609 92.927,-63.308 92.296,-63.022C91.493,-60.327 90.62,-57.763 89.674,-55.327C88.729,-52.89 87.71,-50.512 86.622,-48.191C85.532,-45.869 84.415,-43.548 83.269,-41.226C82.121,-38.905 80.947,-36.511 79.744,-34.047C80.144,-34.161 80.445,-34.146 80.646,-34.004C80.846,-33.86 81.003,-33.731 81.119,-33.617C81.233,-33.388 81.291,-33.187 81.291,-33.015C82.151,-32.899 83.14,-32.985 84.257,-33.273C85.375,-33.559 86.463,-33.86 87.524,-34.176C88.584,-34.49 89.559,-34.763 90.448,-34.993C91.336,-35.222 91.981,-35.222 92.382,-34.993C91.235,-32.527 89.875,-29.92 88.298,-27.169C86.721,-24.417 85.303,-21.58 84.042,-18.658C82.781,-15.734 81.85,-12.768 81.248,-9.758C80.646,-6.749 80.717,-3.783 81.463,-0.86C82.323,-1.433 82.981,-2.12 83.44,-2.923C83.899,-3.726 84.271,-4.615 84.558,-5.588C84.844,-6.562 85.087,-7.594 85.289,-8.684C85.489,-9.772 85.762,-10.889 86.106,-12.036C87.31,-14.1 88.341,-16.206 89.201,-18.356C90.061,-20.505 90.992,-22.612 91.996,-24.676C92.998,-26.74 94.13,-28.729 95.392,-30.651C96.652,-32.57 98.257,-34.39 100.207,-36.111C100.607,-36.167 100.923,-36.224 101.152,-36.283C101.381,-36.339 101.582,-36.397 101.754,-36.454C101.926,-36.511 102.126,-36.583 102.356,-36.669C102.584,-36.755 102.9,-36.855 103.302,-36.97L103.302,-42.387C102.155,-42.387 100.908,-42.301 99.562,-42.129C98.214,-41.957 96.854,-41.756 95.478,-41.527C94.102,-41.297 92.74,-41.082 91.394,-40.882C90.046,-40.681 88.771,-40.581 87.567,-40.581C88.37,-42.243 89.101,-44.006 89.76,-45.869M126.73,-60.443C126.184,-60.557 125.683,-60.4 125.225,-59.97C124.765,-59.54 124.365,-58.923 124.021,-58.121C123.677,-57.318 123.419,-56.516 123.248,-55.714C123.591,-54.394 123.777,-52.933 123.806,-51.329C123.834,-49.723 123.792,-48.09 123.677,-46.428C123.563,-44.765 123.449,-43.146 123.333,-41.57C123.219,-39.993 123.219,-38.604 123.333,-37.4C122.933,-36.597 122.402,-35.852 121.743,-35.165C121.084,-34.476 120.483,-33.774 119.937,-33.058C119.393,-32.341 118.978,-31.554 118.691,-30.694C118.404,-29.834 118.433,-28.858 118.777,-27.771C119.35,-27.713 119.823,-27.756 120.195,-27.9C120.569,-28.042 120.913,-28.244 121.227,-28.501C121.542,-28.76 121.843,-29.017 122.129,-29.275C122.417,-29.533 122.732,-29.748 123.076,-29.92C122.961,-26.194 122.947,-22.797 123.033,-19.732C123.119,-16.664 123.191,-13.641 123.248,-10.661C123.248,-9.915 123.234,-9.157 123.205,-8.382C123.176,-7.609 123.191,-6.848 123.248,-6.104C123.305,-5.36 123.449,-4.686 123.677,-4.083C123.906,-3.482 124.335,-2.981 124.967,-2.578C125.655,-4.586 126.07,-6.82 126.213,-9.286C126.356,-11.749 126.414,-14.358 126.385,-17.11C126.356,-19.861 126.328,-22.683 126.299,-25.578C126.27,-28.472 126.399,-31.324 126.687,-34.133C127.833,-34.878 128.75,-35.823 129.438,-36.97C130.125,-38.116 131.042,-39.062 132.189,-39.807C132.933,-40.896 133.808,-41.856 134.812,-42.688C135.814,-43.518 136.747,-44.421 137.606,-45.396C138.408,-46.484 139.326,-47.43 140.357,-48.234C141.389,-49.036 142.42,-49.838 143.453,-50.641C144.484,-51.443 145.501,-52.275 146.504,-53.135C147.507,-53.994 148.353,-54.996 149.042,-56.144C149.156,-56.946 149.027,-57.49 148.655,-57.777C148.281,-58.063 148.038,-58.521 147.923,-59.153C146.204,-59.153 144.498,-59.224 142.808,-59.368C141.117,-59.51 139.44,-59.611 137.778,-59.669C136.115,-59.725 134.496,-59.697 132.92,-59.583C131.343,-59.467 129.81,-59.181 128.32,-58.723C127.804,-59.755 127.274,-60.327 126.73,-60.443M134.081,-55.155C136.373,-55.355 138.436,-55.456 140.271,-55.456C140.615,-55.398 140.745,-55.312 140.659,-55.198C140.572,-55.082 140.428,-54.953 140.228,-54.811C140.027,-54.667 139.798,-54.51 139.541,-54.338C139.283,-54.166 139.124,-54.022 139.068,-53.908C137.06,-51.901 135.07,-49.91 133.092,-47.932C131.115,-45.955 129.15,-43.934 127.203,-41.871C127.203,-43.017 127.231,-44.034 127.289,-44.923C127.345,-45.811 127.403,-46.686 127.46,-47.546C127.517,-48.406 127.575,-49.293 127.632,-50.211C127.689,-51.127 127.718,-52.217 127.718,-53.478C129.667,-54.394 131.788,-54.953 134.081,-55.155M142.248,-41.355C141.388,-41.297 140.557,-41.111 139.754,-40.796C138.952,-40.481 138.378,-40.008 138.035,-39.378C137.634,-38.976 137.433,-38.546 137.433,-38.088C137.548,-37.801 137.734,-37.572 137.992,-37.4C138.25,-37.228 138.322,-36.941 138.207,-36.54C138.722,-36.024 139.296,-35.681 139.926,-35.509C140.213,-35.451 140.614,-35.35 141.129,-35.208C141.646,-35.063 142.133,-35.079 142.591,-35.251C142.878,-35.365 143.122,-35.565 143.322,-35.852C143.524,-36.139 143.795,-36.369 144.139,-36.54C144.541,-36.655 144.97,-36.698 145.429,-36.669C145.888,-36.64 146.346,-36.626 146.804,-36.626C147.205,-36.741 147.634,-36.798 148.094,-36.798C148.552,-36.798 149.04,-36.827 149.556,-36.884C149.728,-33.101 149.756,-29.246 149.642,-25.321C149.526,-21.394 149.44,-17.482 149.384,-13.584C149.326,-9.686 149.427,-5.874 149.685,-2.149C149.943,1.577 150.501,5.101 151.361,8.426C151.992,8.025 152.45,7.465 152.737,6.75C153.023,6.033 153.223,5.215 153.338,4.299C153.453,3.381 153.511,2.422 153.511,1.42C153.511,0.416 153.567,-0.545 153.683,-1.461C154.141,-7.193 154.371,-13.097 154.371,-19.173C154.371,-25.248 154.313,-31.238 154.199,-37.142C155.689,-37.314 157.208,-37.472 158.755,-37.615C160.303,-37.758 161.735,-37.944 163.054,-38.174C163.34,-33.359 163.728,-28.76 164.215,-24.374C164.702,-19.99 165.26,-15.619 165.892,-11.263C166.236,-10.861 166.494,-10.373 166.666,-9.801C166.837,-9.228 166.995,-8.654 167.138,-8.081C167.281,-7.508 167.453,-6.964 167.655,-6.448C167.855,-5.932 168.184,-5.532 168.643,-5.244C169.159,-5.703 169.503,-6.261 169.675,-6.921C169.847,-7.579 169.918,-8.267 169.89,-8.985C169.861,-9.701 169.79,-10.416 169.675,-11.134C169.559,-11.85 169.445,-12.523 169.332,-13.155C169.215,-13.842 169.172,-14.53 169.202,-15.218C169.23,-15.906 169.187,-16.65 169.073,-17.453C168.729,-20.834 168.428,-24.331 168.17,-27.943C167.913,-31.554 167.753,-35.165 167.698,-38.776C174.404,-39.807 180.68,-41.355 186.527,-43.419C185.551,-44.451 184.148,-44.966 182.314,-44.966C180.479,-44.966 178.759,-44.823 177.155,-44.536C175.492,-44.249 173.888,-43.92 172.34,-43.548C170.792,-43.174 169.187,-42.903 167.526,-42.731C167.467,-46.284 167.526,-49.709 167.698,-53.005C167.87,-56.301 168.184,-59.497 168.643,-62.592C168.414,-62.936 168.27,-63.366 168.213,-63.882C168.156,-64.398 168.098,-64.899 168.042,-65.387C167.984,-65.873 167.898,-66.332 167.784,-66.762C167.667,-67.192 167.44,-67.493 167.095,-67.665C166.408,-67.837 165.892,-67.807 165.548,-67.579C165.204,-67.349 164.745,-67.263 164.172,-67.321C163.599,-66.862 163.24,-66.246 163.097,-65.473C162.954,-64.699 162.939,-63.852 163.054,-62.936C163.054,-62.592 163.111,-62.262 163.226,-61.947C163.34,-61.632 163.399,-61.389 163.399,-61.217L163.399,-60.013C163.399,-59.611 163.34,-59.239 163.226,-58.895C163.111,-56.2 163.04,-53.421 163.011,-50.555C162.982,-47.688 162.997,-44.88 163.054,-42.129C161.563,-42.014 160.059,-41.899 158.541,-41.785C157.021,-41.67 155.516,-41.584 154.027,-41.527C153.969,-45.139 153.869,-48.735 153.726,-52.318C153.582,-55.899 153.309,-59.467 152.909,-63.022C152.622,-63.078 152.378,-63.207 152.178,-63.409C151.977,-63.609 151.761,-63.809 151.534,-64.011C151.303,-64.211 151.045,-64.383 150.759,-64.527C150.472,-64.669 150.1,-64.742 149.642,-64.742C149.182,-64.512 148.911,-64.226 148.825,-63.882C148.739,-63.538 148.696,-63.05 148.696,-62.42C148.924,-59.037 149.083,-55.512 149.168,-51.845C149.254,-48.176 149.354,-44.679 149.47,-41.355L146.074,-41.355C144.956,-41.355 143.853,-41.411 142.763,-41.527C142.878,-41.411 142.849,-41.326 142.677,-41.269C142.505,-41.211 142.419,-41.24 142.419,-41.355L142.248,-41.355ZM142.763,-41.527L142.591,-41.613C142.477,-41.613 142.419,-41.527 142.419,-41.355C142.535,-41.355 142.591,-41.384 142.591,-41.441C142.591,-41.497 142.649,-41.527 142.763,-41.527M185.323,-59.11C184.519,-59.482 183.603,-59.467 182.572,-59.067C179.762,-54.768 177.155,-50.168 174.748,-45.267C172.339,-40.367 170.334,-35.222 168.729,-29.834C169.188,-28.858 169.79,-27.999 170.535,-27.255C171.28,-26.509 172.224,-25.994 173.372,-25.707C174.173,-23.988 175.062,-22.382 176.037,-20.893C177.011,-19.402 177.985,-17.897 178.96,-16.378C179.934,-14.859 180.822,-13.269 181.625,-11.607C182.427,-9.944 183.058,-8.081 183.517,-6.018C183.861,-5.846 184.19,-5.56 184.506,-5.159C184.82,-4.758 185.151,-4.384 185.495,-4.04C185.838,-3.697 186.196,-3.439 186.57,-3.267C186.942,-3.095 187.386,-3.153 187.902,-3.439C188.36,-3.898 188.603,-4.399 188.633,-4.944C188.662,-5.489 188.603,-6.046 188.461,-6.619C188.317,-7.193 188.13,-7.766 187.902,-8.339C187.672,-8.911 187.558,-9.486 187.558,-10.059C188.59,-11.779 189.463,-13.684 190.18,-15.777C190.897,-17.869 191.642,-19.917 192.417,-21.924C193.19,-23.93 194.078,-25.807 195.082,-27.556C196.083,-29.304 197.36,-30.694 198.908,-31.725C198.964,-32.126 198.893,-32.413 198.693,-32.585C198.491,-32.758 198.478,-33.101 198.65,-33.617C195.611,-36.54 193.204,-40.022 191.427,-44.063C189.65,-48.105 188.302,-52.619 187.386,-57.605C186.813,-58.235 186.125,-58.737 185.323,-59.11M176.08,-36.111C176.796,-37.887 177.555,-39.593 178.358,-41.226C179.161,-42.86 180.005,-44.451 180.895,-45.998C181.783,-47.546 182.658,-49.15 183.517,-50.813C184.319,-49.552 185.05,-48.234 185.709,-46.858C186.368,-45.482 187.028,-44.107 187.687,-42.731C188.345,-41.355 189.02,-39.993 189.708,-38.647C190.396,-37.299 191.169,-36.024 192.029,-34.821C190.538,-31.782 189.106,-28.674 187.73,-25.493C186.354,-22.311 185.237,-18.799 184.377,-14.96C183.459,-16.163 182.627,-17.453 181.883,-18.829C181.138,-20.204 180.379,-21.566 179.605,-22.913C178.832,-24.259 178.028,-25.564 177.198,-26.826C176.366,-28.085 175.406,-29.232 174.317,-30.264C174.776,-32.384 175.363,-34.333 176.08,-36.111M210.298,-53.392C210.441,-56.316 210.686,-59.153 211.03,-61.904C210.456,-62.592 209.796,-63.194 209.052,-63.71C208.306,-64.226 207.303,-64.484 206.042,-64.484C205.412,-64.368 204.895,-64.196 204.496,-63.968C204.723,-62.535 204.839,-60.987 204.839,-59.325C204.839,-57.662 204.796,-55.972 204.71,-54.252C204.625,-52.533 204.539,-50.798 204.453,-49.05C204.366,-47.301 204.351,-45.625 204.409,-44.02C204.465,-43.848 204.409,-43.733 204.237,-43.677L204.237,-43.161C201.772,-42.529 199.336,-41.871 196.929,-41.183C194.522,-40.495 192,-39.922 189.363,-39.464C189.478,-38.316 189.779,-37.456 190.265,-36.884C190.753,-36.31 191.34,-35.766 192.028,-35.251C194.322,-35.537 196.486,-35.938 198.52,-36.454C200.553,-36.97 202.574,-37.542 204.582,-38.174C204.351,-36.569 204.265,-34.993 204.323,-33.445C204.379,-31.897 204.409,-30.349 204.409,-28.803C204.351,-28.458 204.336,-28.1 204.366,-27.728C204.394,-27.355 204.379,-26.94 204.323,-26.481C204.379,-26.079 204.379,-25.678 204.323,-25.278C204.265,-24.875 204.237,-24.474 204.237,-24.074C204.179,-23.271 204.179,-22.496 204.237,-21.752C204.293,-21.007 204.323,-20.233 204.323,-19.431C204.437,-16.335 204.496,-13.284 204.496,-10.274C204.496,-7.265 204.582,-4.298 204.753,-1.375C204.809,-1.203 204.882,-1.061 204.968,-0.946C205.054,-0.831 205.125,-0.717 205.183,-0.601C205.469,0.201 205.641,1.032 205.699,1.892C205.755,2.752 206.157,3.324 206.903,3.612C207.705,2.464 208.206,1.003 208.407,-0.774C208.607,-2.551 208.764,-4.356 208.88,-6.19C209.167,-12.036 209.295,-17.668 209.267,-23.085C209.238,-28.501 209.396,-34.103 209.74,-39.893C210.886,-40.352 212.089,-40.796 213.351,-41.226C214.611,-41.656 215.815,-42.071 216.962,-42.473C217.306,-42.587 217.635,-42.688 217.951,-42.774C218.265,-42.86 218.566,-42.959 218.854,-43.075C222.121,-44.393 225.459,-45.568 228.871,-46.6C232.28,-47.632 235.59,-48.835 238.801,-50.211L238.801,-50.297C238.916,-50.469 238.987,-50.626 239.016,-50.77C239.044,-50.912 239.116,-51.041 239.231,-51.157C239.459,-51.501 239.575,-51.759 239.575,-51.931C239.631,-52.045 239.661,-52.275 239.661,-52.619C234.272,-51.815 229.185,-50.684 224.4,-49.223C219.613,-47.761 214.783,-46.312 209.912,-44.88C210.026,-47.632 210.155,-50.469 210.298,-53.392M233.297,-59.11C232.494,-59.482 231.578,-59.467 230.546,-59.067C227.737,-54.768 225.129,-50.168 222.722,-45.267C220.314,-40.367 218.309,-35.222 216.704,-29.834C217.163,-28.858 217.764,-27.999 218.509,-27.255C219.254,-26.509 220.199,-25.994 221.346,-25.707C222.148,-23.988 223.037,-22.382 224.011,-20.893C224.986,-19.402 225.959,-17.897 226.935,-16.378C227.909,-14.859 228.796,-13.269 229.6,-11.607C230.402,-9.944 231.033,-8.081 231.492,-6.018C231.835,-5.846 232.165,-5.56 232.481,-5.159C232.794,-4.758 233.125,-4.384 233.469,-4.04C233.813,-3.697 234.17,-3.439 234.544,-3.267C234.917,-3.095 235.361,-3.153 235.876,-3.439C236.334,-3.898 236.578,-4.399 236.608,-4.944C236.636,-5.489 236.578,-6.046 236.436,-6.619C236.292,-7.193 236.105,-7.766 235.876,-8.339C235.647,-8.911 235.533,-9.486 235.533,-10.059C236.565,-11.779 237.438,-13.684 238.155,-15.777C238.872,-17.869 239.617,-19.917 240.391,-21.924C241.165,-23.93 242.052,-25.807 243.056,-27.556C244.058,-29.304 245.334,-30.694 246.882,-31.725C246.939,-32.126 246.868,-32.413 246.667,-32.585C246.465,-32.758 246.453,-33.101 246.625,-33.617C243.585,-36.54 241.178,-40.022 239.402,-44.063C237.625,-48.105 236.277,-52.619 235.361,-57.605C234.788,-58.235 234.099,-58.737 233.297,-59.11M224.054,-36.111C224.771,-37.887 225.53,-39.593 226.333,-41.226C227.135,-42.86 227.98,-44.451 228.87,-45.998C229.757,-47.546 230.632,-49.15 231.492,-50.813C232.293,-49.552 233.025,-48.234 233.684,-46.858C234.342,-45.482 235.002,-44.107 235.662,-42.731C236.32,-41.355 236.995,-39.993 237.682,-38.647C238.371,-37.299 239.144,-36.024 240.003,-34.821C238.512,-31.782 237.081,-28.674 235.705,-25.493C234.329,-22.311 233.211,-18.799 232.352,-14.96C231.434,-16.163 230.602,-17.453 229.858,-18.829C229.113,-20.204 228.354,-21.566 227.58,-22.913C226.806,-24.259 226.002,-25.564 225.172,-26.826C224.34,-28.085 223.38,-29.232 222.292,-30.264C222.75,-32.384 223.337,-34.333 224.054,-36.111M251.138,-14.66C250.306,-14.745 249.375,-14.644 248.343,-14.358C248.458,-13.727 248.386,-13.34 248.128,-13.198C247.871,-13.054 247.684,-12.811 247.57,-12.466C247.97,-11.835 248.2,-11.061 248.257,-10.145C248.314,-9.228 248.572,-8.511 249.032,-7.995C250.005,-7.938 250.794,-8.052 251.396,-8.339C251.998,-8.625 252.484,-9.04 252.858,-9.586C253.23,-10.13 253.488,-10.76 253.631,-11.478C253.774,-12.194 253.875,-12.983 253.932,-13.842C252.901,-14.3 251.968,-14.573 251.138,-14.66" style="fill:white;fill-rule:nonzero;"/>
            </g>
        </g>
    </g>
</svg>
